<svg width="160" height="160" viewBox="0 0 160 160" fill="none" xmlns="http://www.w3.org/2000/svg">
<path d="M80 9C119.213 9 151 40.7867 151 80C151 119.213 119.213 151 80 151C40.7867 151 9 119.213 9 80C9 40.7867 40.7867 9 80 9ZM80 18.9045C63.7965 18.9045 48.2566 25.3413 36.799 36.799C25.3413 48.2566 18.9045 63.7965 18.9045 80C18.9045 96.2035 25.3413 111.743 36.799 123.201C48.2566 134.659 63.7965 141.095 80 141.095C96.2035 141.095 111.743 134.659 123.201 123.201C134.659 111.743 141.095 96.2035 141.095 80C141.095 63.7965 134.659 48.2566 123.201 36.799C111.743 25.3413 96.2035 18.9045 80 18.9045ZM95.6697 57.5427C96.5904 56.7029 97.7994 56.2504 99.0453 56.2793C100.291 56.3082 101.478 56.8164 102.359 57.698C103.239 58.5797 103.746 59.7669 103.774 61.0128C103.802 62.2587 103.348 63.4673 102.507 64.3871L86.9225 79.9574L102.507 95.5277C103.368 96.4439 103.839 97.6592 103.82 98.9165C103.802 100.174 103.294 101.374 102.406 102.264C101.518 103.155 100.318 103.664 99.0612 103.686C97.804 103.707 96.5877 103.239 95.6697 102.379L80.071 86.7947L64.4865 102.379C63.6739 103.19 62.5995 103.686 61.4551 103.779C60.3106 103.871 59.1706 103.554 58.2385 102.883L57.6421 102.372C56.7351 101.464 56.2256 100.233 56.2256 98.9499C56.2256 97.6665 56.7351 96.4356 57.6421 95.5277L73.2266 79.9574L57.6421 64.3871C57.1688 63.9432 56.7896 63.4086 56.5269 62.8152C56.2643 62.2218 56.1236 61.5817 56.1132 60.9328C56.1028 60.284 56.2229 59.6397 56.4665 59.0382C56.71 58.4367 57.072 57.8903 57.5308 57.4314C57.9897 56.9726 58.5361 56.6106 59.1376 56.3671C59.7391 56.1236 60.3834 56.0034 61.0322 56.0138C61.6811 56.0242 62.3212 56.1649 62.9146 56.4275C63.508 56.6902 64.0426 57.0694 64.4865 57.5427L80.071 73.113L95.6697 57.5427Z" fill="#BF9F40"/>
</svg>
