<svg width="32" height="32" viewBox="0 0 32 32" fill="none" xmlns="http://www.w3.org/2000/svg">
<path d="M13.6 22.36C13.6 25 11.08 27.4 10.84 27.64C10.6 27.88 10.24 28 10 28C9.64 28 9.4 27.88 9.04 27.52C8.68 27.04 8.68 26.32 9.16 25.84C9.76 25.36 11.2 23.68 11.2 22.36C11.2 21.64 10.72 20.92 10.24 20.08C9.52 19.12 8.8 17.92 8.8 16.48C8.8 13.72 10.36 12.64 10.6 12.52C11.08 12.28 11.92 12.4 12.16 12.88C12.52 13.48 12.4 14.2 11.8 14.56C11.8 14.56 11.2 15.04 11.2 16.48C11.2 17.32 11.68 18.04 12.16 18.76C12.88 19.72 13.6 20.92 13.6 22.36V22.36ZM16 16.48C16 15.04 16.6 14.56 16.6 14.56C17.2 14.2 17.32 13.48 16.96 12.88C16.6 12.28 15.88 12.16 15.28 12.52C15.04 12.64 13.48 13.72 13.48 16.48C13.48 17.92 14.2 19.12 14.92 20.08C15.4 20.92 15.88 21.64 15.88 22.36C15.88 23.68 14.44 25.36 13.84 25.84C13.36 26.32 13.36 27.04 13.72 27.52C13.96 27.76 14.32 27.88 14.56 27.88C15.04 28 15.4 27.88 15.64 27.64C15.88 27.4 18.4 25 18.4 22.36C18.4 20.92 17.68 19.72 16.96 18.76C16.48 17.92 16 17.2 16 16.48V16.48ZM25.6 4H6.4C5.76348 4 5.15303 4.25286 4.70294 4.70294C4.25286 5.15303 4 5.76348 4 6.4V19.6C4 20.2365 4.25286 20.847 4.70294 21.2971C5.15303 21.7471 5.76348 22 6.4 22H7.6V19.6H6.4V6.4H25.6V19.6H24.4V22H25.6C26.2365 22 26.847 21.7471 27.2971 21.2971C27.7471 20.847 28 20.2365 28 19.6V6.4C28 5.76348 27.7471 5.15303 27.2971 4.70294C26.847 4.25286 26.2365 4 25.6 4ZM21.04 16.6C21.04 15.16 21.64 14.68 21.64 14.68C22.12 14.32 22.36 13.6 22 13C21.64 12.52 20.92 12.28 20.32 12.64C20.08 12.76 18.52 13.84 18.52 16.6C18.52 18.04 19.36 19.24 19.96 20.2C20.44 21.04 20.92 21.76 20.92 22.48C20.92 23.8 19.48 25.48 18.88 25.96C18.4 26.44 18.28 27.16 18.76 27.64C19 27.88 19.24 28 19.6 28C19.84 28 20.2 27.88 20.68 27.76C20.92 27.52 23.44 25.12 23.44 22.48C23.44 21.04 22.6 19.84 22 18.88C21.52 18.04 21.04 17.32 21.04 16.6V16.6Z" fill="#33394D"/>
</svg>
