<svg width="32" height="32" viewBox="0 0 32 32" fill="none" xmlns="http://www.w3.org/2000/svg">
<path d="M16.5455 9.18182C16.5455 7.97091 17.5164 7 18.7273 7H22.5455C23.7455 7 24.7273 7.98182 24.7273 9.18182V11.5382C23.4618 11.9855 22.5455 13.1855 22.5455 14.6036V16.8182H16.5455V9.18182ZM9.45455 14.5927V16.8182H15.4545V9.18182C15.4545 7.97091 14.4836 7 13.2727 7H9.45455C8.25455 7 7.27273 7.98182 7.27273 9.18182V11.5273C8.53818 11.9745 9.45455 13.1855 9.45455 14.5927ZM25.4473 12.4873C24.3782 12.6618 23.6364 13.6764 23.6364 14.7673V17.9091H8.36364V14.6364C8.36364 14.0577 8.13377 13.5028 7.7246 13.0936C7.31543 12.6844 6.76047 12.4545 6.18182 12.4545C5.60316 12.4545 5.04821 12.6844 4.63904 13.0936C4.22987 13.5028 4 14.0577 4 14.6364V20.0909C4 21.2909 4.98182 22.2727 6.18182 22.2727V24.4545H8.36364V22.2727H23.6364V24.4545H25.8182V22.2727C27.0182 22.2727 28 21.2909 28 20.0909V14.6364C28 13.3164 26.8109 12.2582 25.4473 12.4873V12.4873Z" fill="#33394D"/>
</svg>
