<svg width="32" height="32" viewBox="0 0 32 32" fill="none" xmlns="http://www.w3.org/2000/svg">
<path d="M5 8.57143L13 16.5714H5V20H16.4286L24.4286 28L25.8571 26.5714L6.42857 7.14286L5 8.57143ZM26.1429 16.5714H27.8571V20H26.1429V16.5714ZM23.2857 16.5714H25V20H23.2857V16.5714ZM24.2571 7.29143C24.9657 6.59429 25.4 5.63429 25.4 4.57143H23.6857C23.6857 5.71429 22.7143 6.68571 21.5714 6.68571V8.4C24.1314 8.4 26.1429 10.4914 26.1429 13.0514V15.4286H27.8571V13.0514C27.8571 10.5029 26.3943 8.30857 24.2571 7.29143V7.29143ZM19.2857 11.6571H21.0343C22.2343 11.6571 23.2857 12.5029 23.2857 14V15.4286H25V13.6114C25 11.5543 23.1714 10 21.0343 10H19.2857C18.1429 10 17.1714 8.88 17.1714 7.71429C17.1714 6.54857 18.1429 5.71429 19.2857 5.71429V4C18.2703 4 17.2965 4.40337 16.5785 5.12136C15.8605 5.83936 15.4571 6.81317 15.4571 7.82857C15.4571 8.84397 15.8605 9.81778 16.5785 10.5358C17.2965 11.2538 18.2703 11.6571 19.2857 11.6571V11.6571ZM22.1429 19.92V16.5714H18.7943L22.1429 19.92Z" fill="#33394D"/>
</svg>
