<svg width="32" height="32" viewBox="0 0 32 32" fill="none" xmlns="http://www.w3.org/2000/svg">
<path d="M15.8182 4C10.3636 4 6 8.36364 6 13.8182V21.4545C6 22.3225 6.3448 23.155 6.95856 23.7687C7.57232 24.3825 8.40475 24.7273 9.27273 24.7273H12.5455V16H8.18182V13.8182C8.18182 11.7929 8.98636 9.85055 10.4185 8.41846C11.8506 6.98636 13.7929 6.18182 15.8182 6.18182C17.8435 6.18182 19.7858 6.98636 21.2179 8.41846C22.65 9.85055 23.4545 11.7929 23.4545 13.8182V16H19.0909V24.7273H23.4545V25.8182H15.8182V28H22.3636C23.2316 28 24.064 27.6552 24.6778 27.0414C25.2916 26.4277 25.6364 25.5953 25.6364 24.7273V13.8182C25.6364 8.36364 21.24 4 15.8182 4Z" fill="#33394D"/>
</svg>
