<svg width="32" height="32" viewBox="0 0 32 32" fill="none" xmlns="http://www.w3.org/2000/svg">
<path d="M16 7C11.46 7 7.34 8.78 4.29 11.67C4.11 11.85 4 12.1 4 12.38C4 12.66 4.11 12.91 4.29 13.09L6.77 15.57C6.95731 15.7552 7.20956 15.8599 7.47297 15.8618C7.73637 15.8636 7.99008 15.7625 8.18 15.58C8.97 14.84 9.87 14.22 10.84 13.73C11.17 13.57 11.4 13.23 11.4 12.83V9.73C12.85 9.25 14.39 9 16 9C17.59 9 19.14 9.25 20.59 9.72V12.82C20.59 13.21 20.82 13.56 21.15 13.72C22.13 14.21 23 14.84 23.82 15.57C24 15.75 24.25 15.85 24.5 15.85C24.8 15.85 25.05 15.74 25.23 15.56L27.71 13.08C27.89 12.9 28 12.65 28 12.37C28 12.09 27.88 11.85 27.7 11.67C24.5439 8.66937 20.3548 6.99731 16 7V7ZM13 11V14C13 14 7 19 7 22V26H25V22C25 19 19 14 19 14V11H17V13H15V11H13ZM16 16C17.0609 16 18.0783 16.4214 18.8284 17.1716C19.5786 17.9217 20 18.9391 20 20C20 21.0609 19.5786 22.0783 18.8284 22.8284C18.0783 23.5786 17.0609 24 16 24C14.9391 24 13.9217 23.5786 13.1716 22.8284C12.4214 22.0783 12 21.0609 12 20C12 18.9391 12.4214 17.9217 13.1716 17.1716C13.9217 16.4214 14.9391 16 16 16V16ZM16 17.5C15.337 17.5 14.7011 17.7634 14.2322 18.2322C13.7634 18.7011 13.5 19.337 13.5 20C13.5 20.663 13.7634 21.2989 14.2322 21.7678C14.7011 22.2366 15.337 22.5 16 22.5C16.663 22.5 17.2989 22.2366 17.7678 21.7678C18.2366 21.2989 18.5 20.663 18.5 20C18.5 19.337 18.2366 18.7011 17.7678 18.2322C17.2989 17.7634 16.663 17.5 16 17.5V17.5Z" fill="#33394D"/>
</svg>
