<svg width="32" height="32" viewBox="0 0 32 32" fill="none" xmlns="http://www.w3.org/2000/svg">
<path d="M18.2 4V13.6H27.8C27.8 11.0539 26.7886 8.61212 24.9882 6.81178C23.1879 5.01143 20.7461 4 18.2 4V4ZM25.784 20.668C27.0912 18.9914 27.8008 16.926 27.8 14.8H10.328L9.2 12.4H5V14.8H7.664C7.664 14.8 9.932 19.684 10.208 20.104C8.888 20.8 8 22.204 8 23.8C8 24.9139 8.4425 25.9822 9.23015 26.7699C10.0178 27.5575 11.0861 28 12.2 28C14.312 28 16.064 26.44 16.352 24.4H18.848C19.136 26.44 20.888 28 23 28C24.1139 28 25.1822 27.5575 25.9698 26.7699C26.7575 25.9822 27.2 24.9139 27.2 23.8C27.2 22.552 26.648 21.436 25.784 20.668ZM12.2 25.6C11.7226 25.6 11.2648 25.4104 10.9272 25.0728C10.5896 24.7352 10.4 24.2774 10.4 23.8C10.4 23.3226 10.5896 22.8648 10.9272 22.5272C11.2648 22.1896 11.7226 22 12.2 22C12.6774 22 13.1352 22.1896 13.4728 22.5272C13.8104 22.8648 14 23.3226 14 23.8C14 24.2774 13.8104 24.7352 13.4728 25.0728C13.1352 25.4104 12.6774 25.6 12.2 25.6ZM23 25.6C22.5226 25.6 22.0648 25.4104 21.7272 25.0728C21.3896 24.7352 21.2 24.2774 21.2 23.8C21.2 23.3226 21.3896 22.8648 21.7272 22.5272C22.0648 22.1896 22.5226 22 23 22C23.4774 22 23.9352 22.1896 24.2728 22.5272C24.6104 22.8648 24.8 23.3226 24.8 23.8C24.8 24.2774 24.6104 24.7352 24.2728 25.0728C23.9352 25.4104 23.4774 25.6 23 25.6Z" fill="#33394D"/>
</svg>
