<svg width="32" height="32" viewBox="0 0 32 32" fill="none" xmlns="http://www.w3.org/2000/svg">
<path d="M27.6712 16.9824C28.1533 16.5085 28.1042 15.7143 27.5306 15.3479C24.099 13.1568 20.0933 11.9936 16.0013 12C11.7498 12 7.7884 13.2286 4.47199 15.3479C4.33932 15.436 4.22839 15.5521 4.14737 15.6878C4.06635 15.8235 4.0173 15.9753 4.00381 16.1321C3.99032 16.2889 4.01275 16.4466 4.06944 16.5938C4.12612 16.7409 4.21563 16.8737 4.33139 16.9824C4.52154 17.1648 4.76914 17.2783 5.03354 17.3042C5.29794 17.3302 5.56345 17.267 5.7865 17.125C8.83516 15.2055 12.3809 14.188 16.0013 14.1939C19.6217 14.188 23.1675 15.2055 26.2161 17.125C26.6736 17.4146 27.2874 17.3619 27.6712 16.9824ZM22.7993 21.7717C23.3037 21.2759 23.2122 20.4444 22.5761 20.1263C20.5396 19.1075 18.2863 18.5782 16.0013 18.5818C13.6356 18.5818 11.3994 19.139 9.42652 20.1263C8.79047 20.4444 8.69896 21.2759 9.20334 21.7717L9.23682 21.8046C9.5939 22.1556 10.1474 22.2215 10.6004 22.0021C12.2815 21.1922 14.1292 20.7726 16.0013 20.7757C17.9385 20.7757 19.773 21.2167 21.4022 22.0043C21.8553 22.2237 22.4065 22.1578 22.7658 21.8046L22.7993 21.7717V21.7717ZM18.367 26.1288C18.8044 25.6988 18.8089 24.988 18.2777 24.6808C17.5892 24.278 16.8026 24.0657 16.0013 24.0665C15.2 24.0657 14.4134 24.278 13.7249 24.6808C13.1938 24.988 13.1982 25.6988 13.6356 26.1288L15.2113 27.6777C15.3149 27.7799 15.4381 27.8609 15.5736 27.9162C15.7092 27.9715 15.8545 28 16.0013 28C16.1481 28 16.2934 27.9715 16.429 27.9162C16.5646 27.8609 16.6877 27.7799 16.7914 27.6777L18.3692 26.1266L18.367 26.1288Z" fill="#33394D"/>
</svg>
