<svg width="32" height="32" viewBox="0 0 32 32" fill="none" xmlns="http://www.w3.org/2000/svg">
<path d="M23.7242 12.0001H15.4483C15.2288 12.0001 15.0183 12.0873 14.8631 12.2425C14.7079 12.3977 14.6207 12.6082 14.6207 12.8277V16.1381C14.6227 17.3104 15.0392 18.4443 15.7964 19.3393C16.5536 20.2344 17.6028 20.8329 18.7587 21.0291V26.0691H16.2759V27.7243H22.8966V26.0691H20.4138V21.0291C21.5697 20.8329 22.6189 20.2344 23.3761 19.3393C24.1333 18.4443 24.5497 17.3104 24.5518 16.1381V12.8277C24.5518 12.6082 24.4646 12.3977 24.3094 12.2425C24.1542 12.0873 23.9437 12.0001 23.7242 12.0001ZM22.8966 16.1381C22.8966 17.016 22.5478 17.858 21.927 18.4788C21.3062 19.0996 20.4642 19.4484 19.5862 19.4484C18.7083 19.4484 17.8663 19.0996 17.2455 18.4788C16.6247 17.858 16.2759 17.016 16.2759 16.1381V13.6553H22.8966V16.1381Z" fill="#33394D"/>
<path d="M15.4579 4H11.3199C11.1004 4 10.8899 4.08719 10.7347 4.24239C10.5795 4.3976 10.4923 4.6081 10.4923 4.82759V10.9269C9.68816 11.398 9.03036 12.0829 8.59207 12.9055C8.15377 13.728 7.95214 14.656 8.00958 15.5862V27.1724C8.00958 27.3919 8.09678 27.6024 8.25198 27.7576C8.40718 27.9128 8.61768 28 8.83717 28H12.9751V26.3448H9.66476V15.5862C9.66476 12.9479 11.5111 12.2593 11.5814 12.2337L12.1475 12.0441V5.65517H14.6303V9.7931H16.2854V4.82759C16.2854 4.6081 16.1983 4.3976 16.043 4.24239C15.8878 4.08719 15.6773 4 15.4579 4Z" fill="#33394D"/>
</svg>
