<svg width="32" height="32" viewBox="0 0 32 32" fill="none" xmlns="http://www.w3.org/2000/svg">
<path d="M26.44 6.10658C24.04 6.94658 20.68 7.78658 16 7.78658C11.32 7.78658 7.72 6.82658 5.56 6.10658C4.84 5.74658 4 6.34658 4 7.18658V23.9866C4 24.8266 4.84 25.4266 5.56 25.1866C8.08 24.3466 11.32 23.3866 16 23.3866C20.68 23.3866 24.04 24.3466 26.44 25.1866C27.28 25.4266 28 24.8266 28 23.9866V7.18658C28 6.34658 27.16 5.74658 26.44 6.10658ZM16 19.1866C13.24 19.1866 10.6 19.3066 8.2 19.6666L12.64 14.3866L15.04 17.2666L18.4 13.1866L23.8 19.6666C21.4 19.3066 18.76 19.1866 16 19.1866Z" fill="#33394D"/>
</svg>
