<svg width="48" height="48" viewBox="0 0 48 48" fill="none" xmlns="http://www.w3.org/2000/svg">
<path d="M38.4 27.2V28.8C38.4 31.856 36.688 34.512 34.16 35.856L35.2 40H32L31.2 36.8H16.8L16 40H12.8L13.84 35.856C12.5587 35.1763 11.4869 34.1602 10.7398 32.917C9.99276 31.6738 9.5987 30.2504 9.6 28.8V27.2H8V24H36.8V12.8C36.8 12.3757 36.6314 11.9687 36.3314 11.6686C36.0313 11.3686 35.6243 11.2 35.2 11.2C34.4 11.2 33.792 11.744 33.6 12.464C34.608 13.328 35.2 14.608 35.2 16H25.6C25.6 14.727 26.1057 13.5061 27.0059 12.6059C27.9061 11.7057 29.127 11.2 30.4 11.2H30.672C31.328 9.344 33.104 8 35.2 8C36.473 8 37.6939 8.50571 38.5941 9.40589C39.4943 10.3061 40 11.527 40 12.8V27.2H38.4ZM35.2 27.2H12.8V28.8C12.8 30.073 13.3057 31.2939 14.2059 32.1941C15.1061 33.0943 16.327 33.6 17.6 33.6H30.4C31.673 33.6 32.8939 33.0943 33.7941 32.1941C34.6943 31.2939 35.2 30.073 35.2 28.8V27.2Z" fill="#667399"/>
</svg>
