<svg width="160" height="160" viewBox="0 0 160 160" fill="none" xmlns="http://www.w3.org/2000/svg">
<path d="M80.0001 8.88892C65.9356 8.88892 52.187 13.0595 40.4928 20.8733C28.7987 28.6871 19.6842 39.7931 14.302 52.787C8.91973 65.7808 7.51149 80.0789 10.2553 93.8731C12.9992 107.667 19.7718 120.338 29.7169 130.283C39.662 140.228 52.3328 147.001 66.127 149.745C79.9212 152.489 94.2192 151.08 107.213 145.698C120.207 140.316 131.313 131.201 139.127 119.507C146.941 107.813 151.111 94.0645 151.111 80C151.111 61.1402 143.619 43.0528 130.283 29.7169C116.947 16.381 98.8599 8.88892 80.0001 8.88892ZM80.0001 142.222C67.6937 142.222 55.6636 138.573 45.4312 131.736C35.1989 124.899 27.2237 115.181 22.5142 103.811C17.8048 92.4418 16.5726 79.931 18.9734 67.8611C21.3743 55.7911 27.3004 44.7042 36.0023 36.0023C44.7042 27.3003 55.7912 21.3742 67.8611 18.9734C79.931 16.5725 92.4419 17.8047 103.811 22.5142C115.181 27.2236 124.899 35.1988 131.736 45.4312C138.573 55.6636 142.222 67.6936 142.222 80C142.222 96.5024 135.667 112.329 123.998 123.998C112.329 135.667 96.5024 142.222 80.0001 142.222Z" fill="#BF9F40"/>
<path d="M124.444 53.7778C123.612 52.95 122.485 52.4854 121.311 52.4854C120.137 52.4854 119.01 52.95 118.178 53.7778L68.8444 102.889L42.1777 76.2222C41.3644 75.344 40.2355 74.825 39.0394 74.7791C37.8434 74.7333 36.6781 75.1644 35.7999 75.9778C34.9218 76.7911 34.4027 77.92 34.3568 79.116C34.311 80.3121 34.7422 81.4774 35.5555 82.3555L68.8444 115.556L124.444 60.0889C124.861 59.6757 125.192 59.1841 125.417 58.6425C125.643 58.101 125.759 57.52 125.759 56.9333C125.759 56.3466 125.643 55.7657 125.417 55.2241C125.192 54.6825 124.861 54.1909 124.444 53.7778Z" fill="#BF9F40"/>
</svg>
